<?xml version="1.0" standalone="no"?>
<!DOCTYPE svg PUBLIC "-//W3C//DTD SVG 20010904//EN"
 "http://www.w3.org/TR/2001/REC-SVG-20010904/DTD/svg10.dtd">
<svg version="1.0" xmlns="http://www.w3.org/2000/svg"
 width="271.000000pt" height="271.000000pt" viewBox="0 0 271.000000 271.000000"
 preserveAspectRatio="xMidYMid meet">
<metadata>
Created by potrace 1.14, written by Peter Selinger 2001-2017
</metadata>
<g transform="translate(0.000000,271.000000) scale(0.100000,-0.100000)"
fill="#000000" stroke="none">
<path d="M1279 2239 c-46 -28 -147 -90 -224 -136 -77 -47 -151 -93 -165 -103
l-25 -18 0 -406 0 -406 156 0 157 0 90 -157 c50 -87 93 -158 97 -158 7 0 92
140 156 257 l32 58 156 2 156 3 0 403 c0 348 -2 405 -15 416 -8 7 -107 68
-220 136 -113 68 -217 132 -232 142 -14 10 -28 18 -30 18 -3 0 -43 -23 -89
-51z m339 -174 l181 -110 1 -142 c1 -151 1 -436 0 -527 l0 -55 -106 2 -107 2
0 50 c1 166 -161 273 -313 206 -80 -36 -125 -104 -130 -196 l-3 -60 -100 -1
c-56 -1 -103 2 -106 6 -2 4 -5 163 -6 354 -1 282 1 351 12 361 8 8 106 70 219
138 l205 125 35 -22 c20 -11 118 -70 218 -131z m-179 -635 c82 -42 108 -141
59 -231 -38 -71 -132 -229 -134 -226 -2 2 -93 158 -131 227 -51 89 -23 191 62
231 52 24 96 24 144 -1z"/>
<path d="M1313 803 c-21 -8 -15 -51 9 -64 18 -10 24 -8 40 11 30 37 -2 72 -49
53z"/>
<path d="M1038 791 c0 -3 -2 -79 -3 -168 l-2 -163 35 0 34 0 -4 45 c-2 25 0
45 4 45 4 0 23 -20 44 -45 32 -39 41 -45 75 -45 22 0 39 3 39 6 0 3 -19 26
-42 50 -64 69 -64 67 -8 126 27 29 50 56 50 61 0 4 -18 7 -39 7 -35 0 -43 -5
-80 -51 -46 -58 -43 -64 -42 69 0 34 -3 62 -7 63 -43 5 -52 5 -54 0z"/>
<path d="M160 618 l0 -158 79 0 c94 0 134 12 150 46 17 38 13 63 -15 91 l-25
25 21 20 c30 28 24 84 -11 110 -21 16 -45 20 -113 22 l-86 3 0 -159z m162 89
c11 -18 10 -25 -11 -46 -11 -11 -31 -18 -52 -17 -32 1 -33 3 -34 42 l-1 41 45
-4 c25 -2 49 -9 53 -16z m1 -125 c8 -7 12 -22 9 -37 -5 -28 -31 -39 -78 -33
-27 3 -29 6 -29 43 l-1 41 42 -1 c24 -1 49 -7 57 -13z"/>
<path d="M2060 770 c-9 -5 -13 -34 -12 -91 1 -154 0 -149 36 -185 29 -29 41
-34 83 -34 57 0 109 28 123 66 9 23 14 129 11 219 -1 28 -4 31 -32 30 l-32 -1
2 -110 c1 -94 -2 -114 -17 -127 -25 -22 -63 -25 -92 -7 -11 7 -16 37 -20 126
-4 98 -8 118 -21 119 -9 2 -22 -1 -29 -5z"/>
<path d="M2362 766 c-22 -36 -9 -43 71 -41 66 1 66 3 9 -83 -62 -92 -83 -130
-88 -157 l-4 -25 110 0 110 0 0 25 c0 23 -3 24 -69 27 l-69 3 69 105 c61 94
83 148 62 151 -45 7 -196 3 -201 -5z"/>
<path d="M803 700 c-48 -21 -74 -59 -75 -109 -1 -77 48 -132 118 -133 48 0 98
23 120 57 20 31 20 109 0 140 -33 51 -106 71 -163 45z m89 -54 c35 -26 31
-103 -6 -128 -34 -23 -81 2 -92 48 -16 64 49 118 98 80z"/>
<path d="M1535 700 c-28 -14 -35 -15 -35 -4 0 18 -56 19 -62 2 -2 -7 -4 -62
-3 -123 l0 -110 33 -3 32 -3 0 80 c0 68 3 84 20 101 25 25 52 26 73 2 13 -14
17 -38 17 -100 l0 -82 29 0 c39 0 38 -3 32 173 -1 32 -40 73 -77 80 -14 2 -40
-4 -59 -13z"/>
<path d="M1820 712 c-36 -6 -76 -37 -90 -72 -30 -73 21 -175 93 -182 36 -4 77
10 77 26 0 6 4 6 11 -1 16 -16 2 -66 -22 -81 -24 -15 -72 -8 -90 14 -14 18
-68 19 -65 2 11 -51 50 -77 121 -80 51 -1 91 21 112 63 8 16 13 73 13 167 l0
142 -30 0 c-20 0 -30 -5 -30 -15 0 -8 -4 -15 -10 -15 -5 0 -10 4 -10 9 0 13
-51 27 -80 23z m69 -69 c11 -10 23 -33 26 -51 9 -56 -55 -103 -97 -69 -27 21
-36 48 -27 81 16 54 59 71 98 39z"/>
<path d="M505 701 c-77 -33 -90 -160 -23 -216 61 -52 164 -28 197 45 22 50 16
100 -18 141 -24 28 -34 32 -82 35 -30 2 -63 0 -74 -5z m91 -49 c16 -10 34 -48
34 -70 0 -30 -38 -72 -65 -72 -28 0 -65 43 -65 75 0 49 60 91 96 67z"/>
<path d="M1307 703 c-3 -5 -4 -61 -4 -125 l0 -118 32 0 33 0 1 125 1 125 -30
0 c-16 0 -31 -3 -33 -7z"/>
</g>
</svg>
